<svg width="59" height="23" viewBox="0 0 59 23" fill="none" xmlns="http://www.w3.org/2000/svg">
<path d="M10.6309 0C11.4535 1.72591e-05 12.2535 0.0965869 13.0225 0.273438C8.30357 1.35893 4.78418 5.5825 4.78418 10.6309C4.78429 15.6787 8.30323 19.9014 13.0215 20.9873C12.2528 21.164 11.4532 21.2617 10.6309 21.2617C4.7598 21.2617 0.000123183 16.5019 0 10.6309C0 4.75972 4.75972 0 10.6309 0Z" fill="white"/>
<path d="M48.3691 0C47.5465 1.72591e-05 46.7465 0.0965869 45.9775 0.273438C50.6964 1.35893 54.2158 5.5825 54.2158 10.6309C54.2157 15.6787 50.6968 19.9014 45.9785 20.9873C46.7472 21.164 47.5468 21.2617 48.3691 21.2617C54.2402 21.2617 58.9999 16.5019 59 10.6309C59 4.75972 54.2403 0 48.3691 0Z" fill="white"/>
<path d="M14.3511 2.12585C15.0093 2.12585 15.6499 2.20308 16.2651 2.3446C12.49 3.213 9.67442 6.59213 9.67432 10.6307C9.67449 14.6696 12.4906 18.0479 16.2661 18.9159C15.6505 19.0576 15.0097 19.1356 14.3511 19.1356C9.65433 19.1355 5.84721 15.3275 5.84717 10.6307C5.84717 5.93392 9.6543 2.12601 14.3511 2.12585Z" fill="white"/>
<path d="M44.6489 2.12585C43.9907 2.12585 43.3501 2.20308 42.7349 2.3446C46.51 3.213 49.3256 6.59213 49.3257 10.6307C49.3255 14.6696 46.5094 18.0479 42.7339 18.9159C43.3495 19.0576 43.9903 19.1356 44.6489 19.1356C49.3457 19.1355 53.1528 15.3275 53.1528 10.6307C53.1528 5.93392 49.3457 2.12601 44.6489 2.12585Z" fill="white"/>
<path d="M18.1047 3.72083C18.6418 3.72084 19.1643 3.78314 19.6663 3.89856C16.5847 4.60751 14.2865 7.36644 14.2864 10.6632C14.2864 13.9603 16.5853 16.7182 19.6672 17.4269C19.1649 17.5425 18.6422 17.6056 18.1047 17.6056C14.2704 17.6056 11.1624 14.4975 11.1624 10.6632C11.1624 6.829 14.2705 3.72083 18.1047 3.72083Z" fill="white"/>
<path d="M40.8953 3.72083C40.3582 3.72084 39.8357 3.78314 39.3337 3.89856C42.4153 4.60751 44.7135 7.36644 44.7136 10.6632C44.7136 13.9603 42.4147 16.7182 39.3328 17.4269C39.8351 17.5425 40.3578 17.6056 40.8953 17.6056C44.7296 17.6056 47.8376 14.4975 47.8376 10.6632C47.8376 6.829 44.7295 3.72083 40.8953 3.72083Z" fill="white"/>
<circle cx="29.4999" cy="11.1444" r="11.1444" fill="white"/>
</svg>
