<svg width="142" height="189" viewBox="0 0 142 189" fill="none" xmlns="http://www.w3.org/2000/svg">
<g filter="url(#filter0_f_439_280)">
<path d="M48.3427 160.994C58.0043 165.459 78.6347 166.665 83.8637 135.767C91.201 124.383 107.148 94.8295 112.237 67.6828C118.597 33.7494 117.506 36.3679 94.1512 26.7994C75.4673 19.1445 64.8533 48.2947 71.1565 52.3726C65.2201 62.2615 51.6021 77.5855 44.6213 59.7707C37.6405 41.9559 28.9597 73.5263 25.4919 91.5384L48.3427 160.994Z" fill="url(#paint0_linear_439_280)"/>
<path d="M48.3427 160.994C58.0043 165.459 78.6347 166.665 83.8637 135.767C91.201 124.383 107.148 94.8295 112.237 67.6828C118.597 33.7494 117.506 36.3679 94.1512 26.7994C75.4673 19.1445 64.8533 48.2947 71.1565 52.3726C65.2201 62.2615 51.6021 77.5855 44.6213 59.7707C37.6405 41.9559 28.9597 73.5263 25.4919 91.5384L48.3427 160.994Z" stroke="black"/>
</g>
<defs>
<filter id="filter0_f_439_280" x="0" y="0" width="141.043" height="188.879" filterUnits="userSpaceOnUse" color-interpolation-filters="sRGB">
<feFlood flood-opacity="0" result="BackgroundImageFix"/>
<feBlend mode="normal" in="SourceGraphic" in2="BackgroundImageFix" result="shape"/>
<feGaussianBlur stdDeviation="12.5" result="effect1_foregroundBlur_439_280"/>
</filter>
<linearGradient id="paint0_linear_439_280" x1="125.733" y1="63.8396" x2="25.0647" y2="108.372" gradientUnits="userSpaceOnUse">
<stop stop-color="#00FFFF"/>
<stop offset="0.653846" stop-color="#7B2FF7"/>
<stop offset="1" stop-color="#F107A3"/>
</linearGradient>
</defs>
</svg>
