<svg width="1431" height="656" viewBox="0 0 1431 656" fill="none" xmlns="http://www.w3.org/2000/svg">
<g filter="url(#filter0_f_452_213)">
<path d="M1552.57 620.295C1250.96 152.622 893.205 47.173 -17.7044 85.7946" stroke="#260F69" stroke-width="5"/>
<path d="M1549.71 609.795C1248.1 142.122 890.345 36.673 -20.5646 75.2946" stroke="#7B2FF7" stroke-width="5"/>
<path d="M1556.87 625.795C1255.25 158.122 897.501 52.673 -13.4083 91.2946" stroke="#808BCB" stroke-width="5"/>
<path d="M1554 615.295C1252.39 147.622 894.635 42.173 -16.2743 80.7946" stroke="#520D4B" stroke-width="5"/>
<path d="M1551.29 632.479C1261.4 151.95 896.178 30.7953 -48.3516 29.1154" stroke="#A200FF" stroke-width="5"/>
<path d="M1548.83 621.863C1258.93 141.334 893.714 20.1793 -50.8157 18.4995" stroke="#15836F" stroke-width="5"/>
<path d="M1555.47 638.163C1265.57 157.634 900.354 36.4794 -44.1753 34.7995" stroke="#070947" stroke-width="5"/>
<path d="M1553.01 627.547C1263.11 147.018 897.896 25.8636 -46.6336 24.1838" stroke="#B2E8E5" stroke-width="5"/>
</g>
<defs>
<filter id="filter0_f_452_213" x="-66.8325" y="0" width="1641.8" height="655.462" filterUnits="userSpaceOnUse" color-interpolation-filters="sRGB">
<feFlood flood-opacity="0" result="BackgroundImageFix"/>
<feBlend mode="normal" in="SourceGraphic" in2="BackgroundImageFix" result="shape"/>
<feGaussianBlur stdDeviation="8" result="effect1_foregroundBlur_452_213"/>
</filter>
</defs>
</svg>
